<svg xmlns="http://www.w3.org/2000/svg" width="512" height="128" viewBox="0 0 512 128"><path fill="none" stroke="#7c2d12" stroke-width="9" stroke-linecap="round" d="M103.052,55.342 A40 40 0 0 1 103.052,72.658 M97.736,85.492 A40 40 0 0 1 85.492,97.736 M72.658,103.052 A40 40 0 0 1 55.342,103.052 M42.508,97.736 A40 40 0 0 1 30.264,85.492 M24.948,72.658 A40 40 0 0 1 24.948,55.342 M30.264,42.508 A40 40 0 0 1 42.508,30.264 M55.342,24.948 A40 40 0 0 1 72.658,24.948 M85.492,30.264 A40 40 0 0 1 97.736,42.508"/><path fill="#7c2d12" d="M134.60 49.44L134.60 49.44Q134.60 49.84 134.55 50.14Q134.51 50.44 134.41 50.62Q134.30 50.80 134.16 50.88Q134.02 50.97 133.87 50.97L133.87 50.97L123.81 50.97L123.81 60.31L133.32 60.31Q133.47 60.31 133.61 60.39Q133.75 60.46 133.85 60.63Q133.96 60.80 134.00 61.09Q134.04 61.37 134.04 61.82L134.04 61.82Q134.04 62.22 134.00 62.51Q133.96 62.80 133.85 62.98Q133.75 63.16 133.61 63.25Q133.47 63.35 133.32 63.35L133.32 63.35L123.81 63.35L123.81 74.80Q123.81 74.95 123.72 75.08Q123.64 75.22 123.42 75.30Q123.21 75.37 122.87 75.42Q122.53 75.48 121.98 75.48L121.98 75.48Q121.47 75.48 121.11 75.42Q120.75 75.37 120.54 75.30Q120.32 75.22 120.24 75.08Q120.15 74.95 120.15 74.80L120.15 74.80L120.15 49.35Q120.15 48.52 120.59 48.19Q121.02 47.87 121.51 47.87L121.51 47.87L133.87 47.87Q134.02 47.87 134.16 47.95Q134.30 48.04 134.41 48.23Q134.51 48.42 134.55 48.73Q134.60 49.03 134.60 49.44ZM155.16 63.80L155.16 64.43Q155.16 65.26 154.74 65.61Q154.33 65.96 153.80 65.96L153.80 65.96L141.27 65.96Q141.27 67.55 141.58 68.83Q141.90 70.10 142.65 71.02Q143.39 71.93 144.58 72.42Q145.77 72.91 147.49 72.91L147.49 72.91Q148.85 72.91 149.91 72.68Q150.97 72.46 151.75 72.19Q152.52 71.91 153.02 71.69Q153.52 71.46 153.78 71.46L153.78 71.46Q153.93 71.46 154.04 71.54Q154.16 71.61 154.22 71.76Q154.29 71.91 154.32 72.17Q154.35 72.44 154.35 72.82L154.35 72.82Q154.35 73.10 154.33 73.30Q154.31 73.50 154.28 73.66Q154.24 73.82 154.17 73.95Q154.10 74.08 153.98 74.19Q153.86 74.31 153.29 74.57Q152.71 74.84 151.80 75.10Q150.89 75.35 149.69 75.55Q148.49 75.75 147.13 75.75L147.13 75.75Q144.77 75.75 143.00 75.10Q141.22 74.44 140.01 73.14Q138.80 71.85 138.19 69.89Q137.57 67.94 137.57 65.35L137.57 65.35Q137.57 62.88 138.21 60.92Q138.84 58.95 140.04 57.58Q141.24 56.21 142.94 55.48Q144.64 54.75 146.75 54.75L146.75 54.75Q149.00 54.75 150.58 55.47Q152.16 56.19 153.18 57.41Q154.20 58.63 154.68 60.28Q155.16 61.93 155.16 63.80L155.16 63.80ZM141.27 63.39L151.63 63.39Q151.70 60.63 150.41 59.06Q149.13 57.49 146.60 57.49L146.60 57.49Q145.30 57.49 144.32 57.98Q143.35 58.46 142.69 59.27Q142.03 60.08 141.67 61.15Q141.31 62.22 141.27 63.39L141.27 63.39ZM172.19 69.62L172.19 69.62Q172.19 71.08 171.65 72.23Q171.11 73.37 170.11 74.16Q169.11 74.95 167.73 75.35Q166.35 75.75 164.69 75.75L164.69 75.75Q163.67 75.75 162.75 75.59Q161.83 75.43 161.09 75.19Q160.36 74.95 159.85 74.68Q159.34 74.42 159.11 74.20Q158.87 73.99 158.77 73.61Q158.66 73.23 158.66 72.57L158.66 72.57Q158.66 72.16 158.70 71.89Q158.75 71.61 158.81 71.44Q158.87 71.27 158.99 71.20Q159.11 71.12 159.26 71.12L159.26 71.12Q159.49 71.12 159.95 71.41Q160.40 71.70 161.07 72.04Q161.74 72.38 162.66 72.66Q163.57 72.95 164.76 72.95L164.76 72.95Q165.65 72.95 166.37 72.76Q167.09 72.57 167.63 72.20Q168.16 71.82 168.44 71.25Q168.73 70.68 168.73 69.89L168.73 69.89Q168.73 69.08 168.32 68.53Q167.90 67.98 167.22 67.55Q166.54 67.13 165.69 66.80Q164.84 66.47 163.94 66.11Q163.04 65.75 162.18 65.29Q161.32 64.84 160.64 64.18Q159.96 63.52 159.54 62.61Q159.13 61.69 159.13 60.42L159.13 60.42Q159.13 59.29 159.56 58.26Q160 57.23 160.87 56.46Q161.74 55.68 163.05 55.21Q164.35 54.75 166.10 54.75L166.10 54.75Q166.86 54.75 167.63 54.87Q168.39 55.00 169.01 55.19Q169.62 55.38 170.06 55.61Q170.49 55.83 170.72 56.00Q170.94 56.17 171.01 56.30Q171.09 56.42 171.12 56.58Q171.15 56.74 171.18 56.98Q171.21 57.21 171.21 57.55L171.21 57.55Q171.21 57.91 171.18 58.18Q171.15 58.44 171.08 58.61Q171.00 58.78 170.90 58.86Q170.79 58.93 170.66 58.93L170.66 58.93Q170.47 58.93 170.11 58.70Q169.75 58.46 169.18 58.20Q168.60 57.93 167.83 57.70Q167.05 57.47 166.05 57.47L166.05 57.47Q165.16 57.47 164.48 57.67Q163.80 57.87 163.37 58.24Q162.93 58.61 162.71 59.12Q162.49 59.63 162.49 60.23L162.49 60.23Q162.49 61.06 162.91 61.62Q163.33 62.18 164.01 62.61Q164.69 63.03 165.56 63.37Q166.44 63.71 167.34 64.07Q168.24 64.43 169.12 64.88Q170.00 65.32 170.68 65.96Q171.36 66.60 171.78 67.49Q172.19 68.38 172.19 69.62ZM186.38 73.42L186.38 73.42Q186.38 74.03 186.30 74.39Q186.21 74.76 186.04 74.93Q185.87 75.10 185.53 75.24Q185.19 75.39 184.76 75.49Q184.32 75.58 183.83 75.65Q183.34 75.71 182.85 75.71L182.85 75.71Q181.37 75.71 180.31 75.32Q179.24 74.93 178.56 74.13Q177.88 73.33 177.58 72.11Q177.27 70.89 177.27 69.23L177.27 69.23L177.27 58.06L174.59 58.06Q174.27 58.06 174.08 57.72Q173.89 57.38 173.89 56.62L173.89 56.62Q173.89 56.21 173.94 55.94Q174.00 55.66 174.08 55.48Q174.17 55.30 174.31 55.22Q174.44 55.15 174.61 55.15L174.61 55.15L177.27 55.15L177.27 50.61Q177.27 50.46 177.34 50.33Q177.42 50.20 177.62 50.11Q177.82 50.01 178.16 49.97Q178.50 49.93 179.01 49.93L179.01 49.93Q179.54 49.93 179.88 49.97Q180.22 50.01 180.41 50.11Q180.60 50.20 180.69 50.33Q180.77 50.46 180.77 50.61L180.77 50.61L180.77 55.15L185.68 55.15Q185.85 55.15 185.98 55.22Q186.10 55.30 186.20 55.48Q186.30 55.66 186.34 55.94Q186.38 56.21 186.38 56.62L186.38 56.62Q186.38 57.38 186.19 57.72Q186.00 58.06 185.68 58.06L185.68 58.06L180.77 58.06L180.77 68.72Q180.77 70.70 181.36 71.71Q181.94 72.72 183.45 72.72L183.45 72.72Q183.94 72.72 184.32 72.62Q184.70 72.53 185.00 72.42Q185.30 72.31 185.51 72.22Q185.72 72.12 185.89 72.12L185.89 72.12Q186.00 72.12 186.09 72.17Q186.19 72.23 186.24 72.38Q186.30 72.53 186.34 72.78Q186.38 73.03 186.38 73.42ZM194.05 55.70L194.05 74.82Q194.05 74.99 193.96 75.11Q193.88 75.22 193.69 75.31Q193.50 75.39 193.16 75.43Q192.82 75.48 192.29 75.48L192.29 75.48Q191.78 75.48 191.44 75.43Q191.10 75.39 190.89 75.31Q190.69 75.22 190.62 75.11Q190.54 74.99 190.54 74.82L190.54 74.82L190.54 55.70Q190.54 55.55 190.62 55.43Q190.69 55.30 190.89 55.21Q191.10 55.13 191.44 55.09Q191.78 55.04 192.29 55.04L192.29 55.04Q192.82 55.04 193.16 55.09Q193.50 55.13 193.69 55.21Q193.88 55.30 193.96 55.43Q194.05 55.55 194.05 55.70L194.05 55.70ZM194.45 49.25L194.45 49.25Q194.45 50.48 193.98 50.92Q193.52 51.37 192.26 51.37L192.26 51.37Q191.03 51.37 190.58 50.93Q190.12 50.50 190.12 49.29L190.12 49.29Q190.12 48.06 190.59 47.61Q191.05 47.16 192.31 47.16L192.31 47.16Q193.54 47.16 193.99 47.60Q194.45 48.04 194.45 49.25ZM215.52 55.66L215.52 55.66Q215.52 55.75 215.51 55.84Q215.50 55.94 215.48 56.04Q215.46 56.15 215.43 56.28Q215.39 56.40 215.35 56.55L215.35 56.55L208.83 74.71Q208.75 74.95 208.61 75.10Q208.47 75.24 208.19 75.33Q207.92 75.41 207.49 75.45Q207.07 75.48 206.43 75.48L206.43 75.48Q205.79 75.48 205.37 75.43Q204.94 75.39 204.68 75.31Q204.41 75.22 204.26 75.07Q204.12 74.93 204.03 74.71L204.03 74.71L197.53 56.55Q197.45 56.30 197.39 56.11Q197.34 55.92 197.33 55.82Q197.32 55.72 197.32 55.66L197.32 55.66Q197.32 55.49 197.40 55.36Q197.49 55.24 197.69 55.16Q197.89 55.09 198.22 55.07Q198.55 55.04 199.04 55.04L199.04 55.04Q199.66 55.04 200.03 55.08Q200.40 55.11 200.60 55.19Q200.80 55.28 200.90 55.41Q200.99 55.53 201.08 55.72L201.08 55.72L206.47 71.48L206.56 71.74L206.62 71.48L211.95 55.72Q212.00 55.53 212.10 55.41Q212.21 55.28 212.41 55.19Q212.61 55.11 212.96 55.08Q213.31 55.04 213.89 55.04L213.89 55.04Q214.38 55.04 214.69 55.07Q215.01 55.09 215.19 55.17Q215.37 55.26 215.45 55.37Q215.52 55.49 215.52 55.66ZM237.65 65.05L237.65 65.05Q237.65 67.38 237.04 69.35Q236.42 71.31 235.20 72.74Q233.98 74.16 232.14 74.96Q230.31 75.75 227.88 75.75L227.88 75.75Q225.53 75.75 223.77 75.05Q222.02 74.35 220.85 73.01Q219.69 71.68 219.11 69.76Q218.54 67.85 218.54 65.43L218.54 65.43Q218.54 63.09 219.14 61.13Q219.75 59.16 220.97 57.74Q222.19 56.32 224.02 55.53Q225.84 54.75 228.29 54.75L228.29 54.75Q230.65 54.75 232.40 55.45Q234.15 56.15 235.32 57.49Q236.49 58.83 237.07 60.74Q237.65 62.65 237.65 65.05ZM233.96 65.28L233.96 65.28Q233.96 63.73 233.67 62.35Q233.39 60.97 232.73 59.93Q232.07 58.89 230.94 58.28Q229.82 57.68 228.14 57.68L228.14 57.68Q226.59 57.68 225.47 58.23Q224.36 58.78 223.64 59.79Q222.91 60.80 222.56 62.18Q222.21 63.56 222.21 65.20L222.21 65.20Q222.21 66.77 222.50 68.15Q222.79 69.53 223.46 70.56Q224.12 71.59 225.25 72.20Q226.38 72.80 228.05 72.80L228.05 72.80Q229.58 72.80 230.71 72.25Q231.83 71.70 232.56 70.70Q233.28 69.70 233.62 68.32Q233.96 66.94 233.96 65.28ZM247.51 73.03L247.51 73.03Q247.51 74.54 247.01 75.04Q246.51 75.54 245.19 75.54L245.19 75.54Q243.92 75.54 243.43 75.05Q242.94 74.56 242.94 73.10L242.94 73.10Q242.94 71.59 243.44 71.09Q243.94 70.59 245.26 70.59L245.26 70.59Q246.53 70.59 247.02 71.08Q247.51 71.57 247.51 73.03ZM271.17 65.01L271.17 65.01Q271.17 67.49 270.63 69.48Q270.09 71.46 269.04 72.86Q267.99 74.27 266.46 75.01Q264.93 75.75 262.95 75.75L262.95 75.75Q262.04 75.75 261.26 75.57Q260.49 75.39 259.74 74.99Q259.00 74.59 258.26 73.97Q257.51 73.35 256.69 72.48L256.69 72.48L256.69 74.82Q256.69 74.99 256.60 75.12Q256.52 75.24 256.32 75.32Q256.13 75.39 255.85 75.43Q255.56 75.48 255.11 75.48L255.11 75.48Q254.69 75.48 254.39 75.43Q254.09 75.39 253.90 75.32Q253.71 75.24 253.65 75.12Q253.58 74.99 253.58 74.82L253.58 74.82L253.58 46.44Q253.58 46.27 253.66 46.14Q253.73 46.02 253.93 45.93Q254.14 45.85 254.48 45.80Q254.82 45.76 255.33 45.76L255.33 45.76Q255.86 45.76 256.20 45.80Q256.54 45.85 256.73 45.93Q256.92 46.02 257.00 46.14Q257.09 46.27 257.09 46.44L257.09 46.44L257.09 57.89Q257.94 57.02 258.74 56.42Q259.53 55.83 260.30 55.46Q261.06 55.09 261.83 54.92Q262.59 54.75 263.44 54.75L263.44 54.75Q265.52 54.75 267.00 55.58Q268.47 56.40 269.40 57.79Q270.32 59.19 270.75 61.06Q271.17 62.92 271.17 65.01ZM267.48 65.41L267.48 65.41Q267.48 63.94 267.25 62.56Q267.03 61.18 266.48 60.12Q265.93 59.06 265.01 58.41Q264.10 57.76 262.74 57.76L262.74 57.76Q262.06 57.76 261.40 57.95Q260.74 58.15 260.06 58.59Q259.38 59.04 258.65 59.74Q257.92 60.44 257.09 61.50L257.09 61.50L257.09 69.13Q258.53 70.89 259.85 71.81Q261.17 72.74 262.59 72.74L262.59 72.74Q263.91 72.74 264.84 72.10Q265.78 71.46 266.36 70.41Q266.94 69.36 267.21 68.05Q267.48 66.75 267.48 65.41ZM292.16 56.57L292.16 56.57Q292.16 57.32 291.95 57.65Q291.75 57.98 291.43 57.98L291.43 57.98L288.69 57.98Q289.44 58.74 289.74 59.66Q290.03 60.59 290.03 61.59L290.03 61.59Q290.03 63.24 289.50 64.52Q288.97 65.79 287.98 66.67Q287.00 67.55 285.64 68.02Q284.28 68.49 282.62 68.49L282.62 68.49Q281.45 68.49 280.40 68.18Q279.35 67.87 278.78 67.41L278.78 67.41Q278.39 67.79 278.15 68.28Q277.90 68.77 277.90 69.40L277.90 69.40Q277.90 70.15 278.59 70.63Q279.29 71.12 280.43 71.17L280.43 71.17L285.42 71.38Q286.85 71.42 288.04 71.77Q289.23 72.12 290.10 72.77Q290.97 73.42 291.46 74.36Q291.94 75.31 291.94 76.56L291.94 76.56Q291.94 77.88 291.39 79.07Q290.84 80.26 289.70 81.16Q288.57 82.06 286.80 82.58Q285.04 83.10 282.64 83.10L282.64 83.10Q280.33 83.10 278.70 82.71Q277.08 82.32 276.04 81.64Q274.99 80.96 274.53 80.01Q274.06 79.07 274.06 77.96L274.06 77.96Q274.06 77.26 274.23 76.60Q274.40 75.94 274.75 75.35Q275.10 74.76 275.62 74.21Q276.14 73.67 276.82 73.14L276.82 73.14Q275.78 72.61 275.28 71.80Q274.78 71.00 274.78 70.06L274.78 70.06Q274.78 68.77 275.31 67.75Q275.84 66.73 276.63 65.92L276.63 65.92Q275.97 65.13 275.59 64.15Q275.21 63.16 275.21 61.76L275.21 61.76Q275.21 60.12 275.76 58.83Q276.31 57.53 277.29 56.64Q278.27 55.75 279.64 55.27Q281.01 54.79 282.62 54.79L282.62 54.79Q283.49 54.79 284.24 54.89Q285.00 54.98 285.66 55.15L285.66 55.15L291.43 55.15Q291.80 55.15 291.98 55.50Q292.16 55.85 292.16 56.57ZM286.68 61.61L286.68 61.61Q286.68 59.65 285.60 58.56Q284.53 57.47 282.56 57.47L282.56 57.47Q281.54 57.47 280.78 57.81Q280.03 58.15 279.53 58.74Q279.03 59.33 278.79 60.11Q278.54 60.89 278.54 61.74L278.54 61.74Q278.54 63.63 279.61 64.71Q280.69 65.79 282.62 65.79L282.62 65.79Q283.66 65.79 284.43 65.46Q285.19 65.13 285.69 64.55Q286.19 63.97 286.43 63.20Q286.68 62.44 286.68 61.61ZM288.44 76.75L288.44 76.75Q288.44 75.52 287.43 74.85Q286.42 74.18 284.70 74.14L284.70 74.14L279.75 73.97Q279.07 74.50 278.64 74.98Q278.20 75.46 277.95 75.89Q277.69 76.33 277.60 76.75Q277.50 77.18 277.50 77.62L277.50 77.62Q277.50 79.00 278.90 79.71Q280.30 80.43 282.81 80.43L282.81 80.43Q284.40 80.43 285.48 80.12Q286.55 79.81 287.21 79.30Q287.87 78.79 288.15 78.13Q288.44 77.47 288.44 76.75Z"/></svg>
