<svg xmlns="http://www.w3.org/2000/svg" width="128" height="128" viewBox="0 0 128 128"><path fill="none" stroke="#7c2d12" stroke-width="9" stroke-linecap="round" d="M103.052,55.342 A40 40 0 0 1 103.052,72.658 M97.736,85.492 A40 40 0 0 1 85.492,97.736 M72.658,103.052 A40 40 0 0 1 55.342,103.052 M42.508,97.736 A40 40 0 0 1 30.264,85.492 M24.948,72.658 A40 40 0 0 1 24.948,55.342 M30.264,42.508 A40 40 0 0 1 42.508,30.264 M55.342,24.948 A40 40 0 0 1 72.658,24.948 M85.492,30.264 A40 40 0 0 1 97.736,42.508"/></svg>
