<svg xmlns="http://www.w3.org/2000/svg" width="512" height="128" viewBox="0 0 512 128"><path fill="none" stroke="#7c2d12" stroke-width="9" stroke-linecap="round" d="M103.052,55.342 A40 40 0 0 1 103.052,72.658 M97.736,85.492 A40 40 0 0 1 85.492,97.736 M72.658,103.052 A40 40 0 0 1 55.342,103.052 M42.508,97.736 A40 40 0 0 1 30.264,85.492 M24.948,72.658 A40 40 0 0 1 24.948,55.342 M30.264,42.508 A40 40 0 0 1 42.508,30.264 M55.342,24.948 A40 40 0 0 1 72.658,24.948 M85.492,30.264 A40 40 0 0 1 97.736,42.508"/><path fill="#7c2d12" d="M137.30 51.00L137.30 51.00Q137.30 51.44 137.26 51.76Q137.21 52.08 137.10 52.28Q136.98 52.47 136.83 52.56Q136.68 52.65 136.52 52.65L136.52 52.65L125.64 52.65L125.64 62.75L135.93 62.75Q136.09 62.75 136.24 62.83Q136.38 62.91 136.50 63.10Q136.61 63.28 136.66 63.59Q136.71 63.90 136.71 64.38L136.71 64.38Q136.71 64.82 136.66 65.13Q136.61 65.44 136.50 65.63Q136.38 65.83 136.24 65.93Q136.09 66.03 135.93 66.03L135.93 66.03L125.64 66.03L125.64 78.40Q125.64 78.56 125.55 78.71Q125.46 78.86 125.23 78.94Q125.00 79.02 124.63 79.08Q124.27 79.14 123.67 79.14L123.67 79.14Q123.12 79.14 122.73 79.08Q122.34 79.02 122.11 78.94Q121.88 78.86 121.79 78.71Q121.70 78.56 121.70 78.40L121.70 78.40L121.70 50.91Q121.70 50.02 122.17 49.66Q122.64 49.30 123.17 49.30L123.17 49.30L136.52 49.30Q136.68 49.30 136.83 49.40Q136.98 49.49 137.10 49.69Q137.21 49.90 137.26 50.23Q137.30 50.57 137.30 51.00ZM159.52 66.52L159.52 67.20Q159.52 68.10 159.07 68.48Q158.62 68.86 158.05 68.86L158.05 68.86L144.51 68.86Q144.51 70.58 144.85 71.95Q145.20 73.33 146.00 74.32Q146.80 75.31 148.09 75.83Q149.37 76.36 151.23 76.36L151.23 76.36Q152.70 76.36 153.85 76.12Q155.00 75.88 155.83 75.58Q156.67 75.28 157.21 75.04Q157.75 74.80 158.03 74.80L158.03 74.80Q158.19 74.80 158.31 74.88Q158.44 74.96 158.51 75.12Q158.58 75.28 158.61 75.57Q158.65 75.86 158.65 76.27L158.65 76.27Q158.65 76.57 158.62 76.79Q158.60 77.00 158.57 77.18Q158.53 77.35 158.45 77.49Q158.37 77.62 158.24 77.75Q158.12 77.88 157.50 78.16Q156.88 78.45 155.89 78.72Q154.90 79 153.61 79.22Q152.31 79.44 150.84 79.44L150.84 79.44Q148.30 79.44 146.38 78.72Q144.46 78.01 143.15 76.61Q141.85 75.21 141.18 73.10Q140.52 70.99 140.52 68.19L140.52 68.19Q140.52 65.53 141.20 63.41Q141.89 61.28 143.19 59.80Q144.49 58.32 146.32 57.53Q148.16 56.74 150.43 56.74L150.43 56.74Q152.86 56.74 154.57 57.52Q156.28 58.30 157.38 59.62Q158.48 60.94 159.00 62.72Q159.52 64.50 159.52 66.52L159.52 66.52ZM144.51 66.08L155.71 66.08Q155.78 63.10 154.39 61.40Q153 59.70 150.27 59.70L150.27 59.70Q148.87 59.70 147.81 60.23Q146.76 60.76 146.05 61.63Q145.33 62.50 144.94 63.66Q144.55 64.82 144.51 66.08L144.51 66.08ZM177.92 72.80L177.92 72.80Q177.92 74.39 177.34 75.63Q176.75 76.87 175.67 77.71Q174.60 78.56 173.10 79Q171.61 79.44 169.82 79.44L169.82 79.44Q168.72 79.44 167.72 79.26Q166.72 79.09 165.93 78.83Q165.14 78.56 164.59 78.28Q164.04 77.99 163.79 77.76Q163.53 77.53 163.42 77.12Q163.30 76.71 163.30 75.99L163.30 75.99Q163.30 75.56 163.35 75.26Q163.40 74.96 163.46 74.78Q163.53 74.59 163.66 74.51Q163.79 74.43 163.95 74.43L163.95 74.43Q164.20 74.43 164.69 74.74Q165.19 75.05 165.91 75.42Q166.63 75.79 167.62 76.10Q168.61 76.41 169.89 76.41L169.89 76.41Q170.85 76.41 171.63 76.20Q172.42 75.99 172.99 75.59Q173.56 75.19 173.87 74.57Q174.18 73.95 174.18 73.10L174.18 73.10Q174.18 72.23 173.73 71.63Q173.29 71.04 172.55 70.58Q171.82 70.12 170.90 69.76Q169.98 69.41 169.01 69.02Q168.03 68.63 167.10 68.13Q166.17 67.64 165.44 66.93Q164.70 66.22 164.26 65.23Q163.81 64.24 163.81 62.87L163.81 62.87Q163.81 61.65 164.28 60.54Q164.75 59.42 165.69 58.59Q166.63 57.75 168.04 57.24Q169.45 56.74 171.34 56.74L171.34 56.74Q172.16 56.74 172.99 56.88Q173.81 57.01 174.48 57.22Q175.15 57.43 175.62 57.67Q176.09 57.91 176.33 58.09Q176.57 58.28 176.65 58.41Q176.73 58.55 176.76 58.72Q176.80 58.90 176.83 59.15Q176.87 59.40 176.87 59.77L176.87 59.77Q176.87 60.16 176.83 60.45Q176.80 60.73 176.72 60.92Q176.64 61.10 176.52 61.18Q176.41 61.26 176.27 61.26L176.27 61.26Q176.06 61.26 175.67 61.01Q175.28 60.76 174.66 60.47Q174.04 60.18 173.21 59.93Q172.37 59.68 171.29 59.68L171.29 59.68Q170.33 59.68 169.59 59.89Q168.86 60.11 168.39 60.51Q167.92 60.92 167.68 61.47Q167.44 62.02 167.44 62.66L167.44 62.66Q167.44 63.56 167.89 64.16Q168.35 64.77 169.09 65.23Q169.82 65.69 170.76 66.06Q171.70 66.42 172.68 66.81Q173.65 67.20 174.61 67.69Q175.56 68.17 176.29 68.86Q177.03 69.54 177.48 70.51Q177.92 71.47 177.92 72.80ZM193.25 76.91L193.25 76.91Q193.25 77.58 193.16 77.97Q193.07 78.36 192.89 78.54Q192.70 78.72 192.33 78.89Q191.97 79.05 191.50 79.15Q191.03 79.25 190.50 79.32Q189.97 79.39 189.44 79.39L189.44 79.39Q187.84 79.39 186.69 78.97Q185.54 78.54 184.81 77.68Q184.07 76.82 183.74 75.50Q183.41 74.18 183.41 72.39L183.41 72.39L183.41 60.32L180.52 60.32Q180.17 60.32 179.97 59.95Q179.76 59.58 179.76 58.76L179.76 58.76Q179.76 58.32 179.82 58.02Q179.87 57.73 179.97 57.53Q180.06 57.34 180.21 57.26Q180.36 57.18 180.54 57.18L180.54 57.18L183.41 57.18L183.41 52.26Q183.41 52.10 183.49 51.97Q183.57 51.83 183.79 51.72Q184.00 51.62 184.37 51.58Q184.74 51.53 185.29 51.53L185.29 51.53Q185.86 51.53 186.23 51.58Q186.60 51.62 186.80 51.72Q187.01 51.83 187.10 51.97Q187.19 52.10 187.19 52.26L187.19 52.26L187.19 57.18L192.50 57.18Q192.68 57.18 192.82 57.26Q192.95 57.34 193.06 57.53Q193.16 57.73 193.21 58.02Q193.25 58.32 193.25 58.76L193.25 58.76Q193.25 59.58 193.05 59.95Q192.84 60.32 192.50 60.32L192.50 60.32L187.19 60.32L187.19 71.84Q187.19 73.97 187.83 75.06Q188.46 76.15 190.09 76.15L190.09 76.15Q190.61 76.15 191.03 76.05Q191.44 75.95 191.76 75.83Q192.08 75.72 192.31 75.61Q192.54 75.51 192.73 75.51L192.73 75.51Q192.84 75.51 192.94 75.57Q193.05 75.63 193.10 75.79Q193.16 75.95 193.21 76.22Q193.25 76.50 193.25 76.91ZM201.54 57.77L201.54 78.43Q201.54 78.61 201.45 78.74Q201.35 78.86 201.15 78.95Q200.94 79.05 200.57 79.09Q200.21 79.14 199.63 79.14L199.63 79.14Q199.08 79.14 198.71 79.09Q198.35 79.05 198.13 78.95Q197.91 78.86 197.83 78.74Q197.75 78.61 197.75 78.43L197.75 78.43L197.75 57.77Q197.75 57.61 197.83 57.47Q197.91 57.34 198.13 57.24Q198.35 57.15 198.71 57.11Q199.08 57.06 199.63 57.06L199.63 57.06Q200.21 57.06 200.57 57.11Q200.94 57.15 201.15 57.24Q201.35 57.34 201.45 57.47Q201.54 57.61 201.54 57.77L201.54 57.77ZM201.97 50.80L201.97 50.80Q201.97 52.13 201.47 52.61Q200.96 53.09 199.61 53.09L199.61 53.09Q198.28 53.09 197.79 52.62Q197.29 52.15 197.29 50.84L197.29 50.84Q197.29 49.51 197.80 49.03Q198.30 48.55 199.66 48.55L199.66 48.55Q200.99 48.55 201.48 49.02Q201.97 49.49 201.97 50.80ZM224.74 57.73L224.74 57.73Q224.74 57.82 224.73 57.92Q224.72 58.02 224.69 58.14Q224.67 58.25 224.64 58.39Q224.60 58.53 224.56 58.69L224.56 58.69L217.51 78.31Q217.42 78.56 217.27 78.72Q217.12 78.89 216.82 78.98Q216.52 79.07 216.06 79.10Q215.61 79.14 214.92 79.14L214.92 79.14Q214.23 79.14 213.77 79.09Q213.31 79.05 213.02 78.95Q212.74 78.86 212.58 78.70Q212.42 78.54 212.32 78.31L212.32 78.31L205.30 58.69Q205.21 58.41 205.15 58.21Q205.09 58.00 205.08 57.90Q205.07 57.79 205.07 57.73L205.07 57.73Q205.07 57.54 205.16 57.40Q205.26 57.27 205.47 57.19Q205.69 57.11 206.05 57.08Q206.40 57.06 206.93 57.06L206.93 57.06Q207.60 57.06 208.00 57.09Q208.40 57.13 208.62 57.22Q208.84 57.31 208.94 57.45Q209.04 57.59 209.13 57.79L209.13 57.79L214.96 74.82L215.05 75.10L215.12 74.82L220.88 57.79Q220.93 57.59 221.04 57.45Q221.16 57.31 221.38 57.22Q221.60 57.13 221.97 57.09Q222.35 57.06 222.97 57.06L222.97 57.06Q223.50 57.06 223.84 57.08Q224.19 57.11 224.38 57.20Q224.58 57.29 224.66 57.42Q224.74 57.54 224.74 57.73ZM248.65 67.87L248.65 67.87Q248.65 70.39 247.99 72.52Q247.32 74.64 246.00 76.18Q244.68 77.71 242.70 78.58Q240.71 79.44 238.10 79.44L238.10 79.44Q235.55 79.44 233.66 78.68Q231.76 77.92 230.50 76.48Q229.24 75.03 228.62 72.96Q228.00 70.90 228.00 68.28L228.00 68.28Q228.00 65.76 228.65 63.64Q229.31 61.51 230.63 59.98Q231.95 58.44 233.92 57.59Q235.89 56.74 238.53 56.74L238.53 56.74Q241.08 56.74 242.97 57.50Q244.87 58.25 246.13 59.70Q247.39 61.15 248.02 63.21Q248.65 65.28 248.65 67.87ZM244.66 68.12L244.66 68.12Q244.66 66.45 244.35 64.96Q244.04 63.46 243.33 62.34Q242.62 61.21 241.40 60.56Q240.18 59.91 238.37 59.91L238.37 59.91Q236.70 59.91 235.49 60.50Q234.29 61.10 233.51 62.19Q232.73 63.28 232.35 64.77Q231.97 66.26 231.97 68.03L231.97 68.03Q231.97 69.73 232.28 71.22Q232.59 72.71 233.31 73.82Q234.03 74.94 235.25 75.59Q236.47 76.25 238.28 76.25L238.28 76.25Q239.93 76.25 241.15 75.65Q242.36 75.05 243.14 73.97Q243.92 72.90 244.29 71.40Q244.66 69.91 244.66 68.12Z"/></svg>
